<svg version="1" xmlns="http://www.w3.org/2000/svg" width="1365.333" height="1365.333" viewBox="0 0 1024.000000 1024.000000"><path d="M784.5 274c-2.2.5-5.2 1.1-6.6 1.3-10.5 2-65.2 18.9-73.4 22.7-1.1.5-5.8 2.2-10.5 3.8-39.3 13.5-103.1 39-140.4 56.2-34 15.7-70.3 33.8-99.3 49.6-3.5 1.9-9.3 5.1-13 7.1-37.1 20.2-115.2 69.4-145.3 91.6-7.8 5.8-29.4 23.2-33.6 27.2-.6.5-4.6 4.1-9 8-4.3 3.8-10.8 9.8-14.4 13.1-3.6 3.4-8.5 8.1-11 10.4-59.6 55.9-82.8 79-104.6 104-12.4 14.2-22.6 27-33.3 41.9-9.7 13.5-11.2 16.2-11.3 20.4-.1 4.2 4.7 8.2 17.7 14.8 15 7.5 15 7.5 32-15.1 19.5-26.1 33.4-41.6 73.1-81.4 19.9-19.9 31.9-31.2 60.9-57.6 12.7-11.5 48.5-41.7 60-50.5 2.1-1.7 5.2-4.2 6.9-5.6 4.5-3.7 27.6-21.3 38.1-29 8.2-6 14.3-10.3 32-22.4 6.7-4.5 24.4-15.9 29-18.5 1.7-1 7.1-4.2 12-7.2 21.2-12.9 63.3-35 91.5-48.1 4.1-1.9 11.6-5.4 16.5-7.7 10.4-4.9 29.6-13.6 34-15.5 1.7-.7 5.6-2.4 8.8-3.9 3.2-1.4 6-2.6 6.2-2.6.2 0 2.9-1.1 5.9-2.5 8.2-3.7 46.7-19.5 47.6-19.5.5 0 2.1-.6 3.7-1.4 1.5-.8 6.4-2.8 10.8-4.4 4.4-1.7 13-4.8 19-7.1C713 335.5 758.1 321.7 789 314c9.1-2.2 18-4.6 19.9-5.2l3.4-1-.6-10.2c-.7-13.7-3.1-19.6-9-22.8-2.5-1.3-13.5-1.8-18.2-.8zM107 332c-4.1 1.2-7 3.3-8.9 6.5-2.2 3.5-6.9 17.2-8.1 23.4-.7 3.9-.5 4.7 1.6 6.8l2.4 2.4 166.8-.3c185.3-.4 167.1.3 178.7-6.9 2.8-1.8 14.7-8.1 26.5-14 11.8-6 23.4-12.4 25.7-14.3 4-3.2 4.2-3.4 2-4-3.2-.9-383.7-.5-386.7.4zM767.5 351.6c-6.7 4.5-20.4 16.7-21 18.5-.4 1-.1 2.9.6 4.1.7 1.3 10.6 11.5 22 22.8 62.3 61.6 127.3 125.6 140.9 139 44.8 43.8 53 52.4 52.4 54.3-.3 1.1-7.2 9.5-15.3 18.7-8 9.1-16.5 18.9-18.8 21.6-2.3 2.7-5.2 6-6.4 7.4-5.9 6.8-12.8 15.8-14.3 18.7-2.9 5.8-1.7 10.6 3.8 15.7 4.5 4 17.7 13.7 19.8 14.5 3.3 1.3 6.2-.9 14.1-10.3 3.7-4.4 8-9.5 9.5-11.2 1.5-1.8 3.6-4.2 4.7-5.5 6.5-7.7 29.7-34.7 32-37.3.6-.6 6.3-7.2 12.6-14.6 11.1-12.9 13.6-16.7 13-20-.1-.8-6.7-7.8-14.6-15.5-13-12.7-56.1-55-108.7-106.7-10.8-10.6-36.9-36.2-58-56.9-21-20.7-41.9-41.2-46.3-45.5-9.9-9.8-15.3-14.4-17-14.4-.7 0-2.9 1.2-5 2.6zM83.8 431c-28.2.5-29.8.6-31.2 2.5-.9 1.1-3.2 7.2-5.2 13.5-2.1 6.3-4 11.9-4.4 12.5-.3.5-.7 2.7-.9 4.7-.2 3 .2 4 2.4 5.4 2.5 1.6 9.5 1.7 107.5 1.7 99.1 0 105.1-.1 109.7-1.8 4-1.5 9.9-5.3 14.9-9.4.6-.5 8.3-6.1 17-12.4 17.4-12.6 20.5-15.3 18.3-16.2-1.9-.7-191.4-1.1-228.1-.5zM674 482.1c-12.1.9-12.6 1.4-11.5 14.2.4 4.5.8 10.7 1.1 13.7.4 6 1.5 16.6 1.9 19 .1.8.6 3.5 1 6 2 13.1 8.7 31.2 15.8 43 9.9 16.3 23.9 29.1 41 37.4 9.7 4.8 23.6 9.2 32.1 10.2 2.8.4 5.3.8 5.6.9.3.2 6.5.6 13.8 1 14.6.8 16.8.2 19.5-5.3 1.9-3.8 2.1-14.2.4-18.3-2.7-6.5-6.8-8.3-21.7-9.4-4.7-.4-8.7-.8-9-1-.3-.2-2.1-.6-4-.9-12.3-1.9-25.8-8.6-34.5-17.2-13.6-13.4-19.4-28.4-23.5-60.7-3.2-25.3-5.2-31.2-11.1-32.2-4.9-.9-9.6-1-16.9-.4zM107 533c-74.1.4-82.8.7-85.5 2.1-5.9 3.3-8.4 7.7-12 21.1-2.7 10-3.1 15.3-1.4 16.4 1.5.9 136.6.9 140.9-.1 6.5-1.4 11.4-4.7 20.6-13.9 5-5 12.3-12.1 16.2-15.8 4-3.7 7.2-7.2 7.2-7.7 0-.6-.8-1.4-1.7-1.8-1-.4-38.9-.6-84.3-.3z"/></svg>