<svg id="Layer_1" data-name="Layer 1" xmlns="http://www.w3.org/2000/svg" viewBox="0 0 559.68 263.94"><path d="M449.82,24.85c.34,2.75-1.81,3-3.59,3.4a596.11,596.11,0,0,0-59.31,17.23c-36.44,12.91-71.72,28.34-106.4,45.37a509.28,509.28,0,0,0-82,50.05A816.9,816.9,0,0,0,85.31,243.59c-6.92,7.6-13,16-19.12,24.24-3,4-5.37,5.37-10.34,2.74-15.26-8.08-15-7.62-5.3-21.29,18.4-25.79,41.19-47.37,64.17-68.91,18-16.86,35.46-34.26,55.95-48.19,30.84-21,62.47-40.59,95.7-57.65A876.8,876.8,0,0,1,377.63,26.25c17.53-6.13,34.86-12.9,53-17C445.89,5.79,449.88,9.06,449.82,24.85Z" transform="translate(-3.9 -7.99)"/><path d="M428.22,49.66c1.55,1.27,3.19,2.41,4.59,3.79q61.71,60.48,123.39,121c8.95,8.78,10.46,6.47.62,17.77q-18.45,21.17-36.59,42.59c-2.12,2.5-3.65,2.81-6.43.76-15.53-11.42-15.61-11.36-3.16-25.88,7.09-8.26,14.14-16.55,21.46-24.6,2.46-2.7.44-3.82-1-5.26Q490,139.36,448.85,98.94c-11.17-11-22.22-22.09-33.46-33-2.81-2.73-2.75-4.77.33-7C419.79,56,422.93,51.79,428.22,49.66Z" transform="translate(-3.9 -7.99)"/><path d="M165.65,40q52.71,0,105.43,0a30.89,30.89,0,0,1,3.79.47,28.09,28.09,0,0,1-3.09,2.61c-10.35,6.44-22,10.41-32.13,17.37-1.82,1.26-4.7,1.37-7.09,1.37Q144.12,62,55.68,62c-5.31,0-6.92-1.22-5.23-6.81C55.05,40.09,54.83,40,70.67,40Z" transform="translate(-3.9 -7.99)"/><path d="M102.52,95.19q33.78,0,67.54,0a26.66,26.66,0,0,1,3.74.51,25.6,25.6,0,0,1-2.63,2.58c-7.12,5.24-14.37,10.31-21.39,15.67a15.34,15.34,0,0,1-9.91,3.56q-55.11-.16-110.23,0c-5.63,0-7.35-1.45-5.35-7.06C30.83,92.2,25.64,95.42,45,95.23,64.18,95,83.35,95.18,102.52,95.19Z" transform="translate(-3.9 -7.99)"/><path d="M428.17,203.76c-34.54-1.16-57-23.36-60.13-59.47-.46-5.33-.77-10.68-1.34-16-.37-3.46,1.13-4.59,4.42-4.77,15.24-.81,15.23-.86,17.19,14,.66,5,1.13,10.07,2.13,15,4.15,20.6,16.73,31.57,37.74,33.09,6.83.5,13.27.4,12.78,10.66S434,203.93,428.17,203.76Z" transform="translate(-3.9 -7.99)"/><path d="M58.81,151.59c14.8,0,29.6,0,44.4,0,1.3,0,3.28-.82,3.73,1,.18.77-1.27,2.08-2.17,2.94-4.26,4.12-9,7.85-12.8,12.32-4.59,5.34-10.09,6.2-16.66,6.11-22.34-.3-44.69-.18-67-.07-4,0-5-1-4-5.08,4.55-17.24,4.44-17.26,22.31-17.26Z" transform="translate(-3.9 -7.99)"/></svg>